<svg width="16" height="16" viewBox="0 0 16 16" xmlns="http://www.w3.org/2000/svg" role="img" aria-label="Kudegowo logo">
  <title>Kudegowo Logo</title>
  <path d="M8,1 L14,4 C14.5,4.3 15,5 15,5.5 L15,10.5 C15,11 14.5,11.7 14,12 L8.5,15 C8.2,15.2 7.8,15.2 7.5,15 L2,12 C1.5,11.7 1,11 1,10.5 L1,5.5 C1,5 1.5,4.3 2,4 Z"
        fill="#0066CC"/>
  <g fill="white">
    <rect x="4.5" y="4" width="2.5" height="8" rx="0.5"/>
    <polygon points="7,7.5 12,4 13,4.5 12,5.5 7.5,8.5"/>
    <polygon points="7,9 7.5,8.5 12.5,12.5 11.5,13"/>
  </g>
  <line x1="12" y1="3.5" x2="13.5" y2="3.5" stroke="#E6A500" stroke-width="0.8" stroke-linecap="round"/>
</svg>
